<svg width="85" height="24" viewBox="0 0 85 24" fill="none" xmlns="http://www.w3.org/2000/svg">
<path d="M19.44 13C19.22 13 18.99 12.93 18.77 12.88C18.3245 12.7818 17.8866 12.6515 17.46 12.49C16.9961 12.3212 16.4861 12.33 16.0283 12.5146C15.5704 12.6992 15.1971 13.0466 14.98 13.49L14.76 13.94C13.786 13.3982 12.891 12.7252 12.1 11.94C11.3147 11.149 10.6418 10.254 10.1 9.28L10.52 9.00001C10.9633 8.78292 11.3108 8.40954 11.4954 7.9517C11.68 7.49386 11.6887 6.98392 11.52 6.52001C11.3612 6.09243 11.2309 5.6548 11.13 5.21001C11.08 4.99001 11.04 4.76001 11.01 4.53001C10.8885 3.82563 10.5196 3.18775 9.9696 2.73124C9.4196 2.27474 8.72467 2.02961 8.00998 2.04001H5.00998C4.57901 2.03596 4.15223 2.12482 3.75869 2.30054C3.36515 2.47625 3.01409 2.7347 2.72941 3.05829C2.44473 3.38187 2.23311 3.763 2.10897 4.17572C1.98482 4.58844 1.95106 5.02306 2.00998 5.45001C2.54272 9.63939 4.45601 13.5319 7.44763 16.5126C10.4393 19.4934 14.3387 21.3925 18.53 21.91H18.91C19.6474 21.9111 20.3594 21.6405 20.91 21.15C21.2263 20.867 21.4791 20.5202 21.6514 20.1323C21.8238 19.7445 21.9119 19.3244 21.91 18.9V15.9C21.8977 15.2054 21.6448 14.5366 21.1943 14.0077C20.7439 13.4788 20.1238 13.1226 19.44 13V13ZM19.94 19C19.9398 19.142 19.9094 19.2823 19.8508 19.4116C19.7921 19.5409 19.7066 19.6563 19.6 19.75C19.4886 19.847 19.358 19.9194 19.2167 19.9625C19.0754 20.0056 18.9266 20.0184 18.78 20C15.0349 19.5198 11.5562 17.8065 8.89269 15.1303C6.22917 12.4541 4.53239 8.96734 4.06998 5.22001C4.05406 5.07352 4.06801 4.92534 4.11098 4.7844C4.15395 4.64346 4.22505 4.51269 4.31998 4.40001C4.41369 4.29334 4.52904 4.20785 4.65836 4.14922C4.78767 4.0906 4.92799 4.06019 5.06998 4.06001H8.06998C8.30253 4.05483 8.5296 4.13088 8.71212 4.27508C8.89464 4.41927 9.02119 4.62258 9.06998 4.85001C9.10998 5.12334 9.15998 5.39334 9.21998 5.66001C9.3355 6.18715 9.48924 6.70518 9.67998 7.21001L8.27998 7.86001C8.16028 7.91493 8.0526 7.99295 7.96314 8.0896C7.87367 8.18625 7.80418 8.29962 7.75865 8.4232C7.71312 8.54678 7.69245 8.67814 7.69783 8.80973C7.7032 8.94132 7.73452 9.07055 7.78998 9.19C9.22918 12.2728 11.7072 14.7508 14.79 16.19C15.0334 16.29 15.3065 16.29 15.55 16.19C15.6747 16.1454 15.7893 16.0765 15.8871 15.9872C15.985 15.8979 16.0641 15.7901 16.12 15.67L16.74 14.27C17.2569 14.4549 17.7846 14.6085 18.32 14.73C18.5866 14.79 18.8566 14.84 19.13 14.88C19.3574 14.9288 19.5607 15.0553 19.7049 15.2379C19.8491 15.4204 19.9252 15.6475 19.92 15.88L19.94 19Z" fill="#ED017F"/>
<path d="M38.4847 17H40.5927V5.321H38.8927L35.6117 7.548L36.4787 9.044L38.4847 7.769V17ZM49.0311 9.537C47.8411 9.537 46.7191 10.03 46.0051 10.863C46.1411 8.568 47.3141 6.987 48.9631 6.987C50.0001 6.987 50.7141 7.412 51.4281 8.041L52.4651 6.426C51.5301 5.627 50.4251 5.117 48.9801 5.117C45.9371 5.117 43.8121 7.752 43.8121 11.356C43.8121 14.722 45.2911 17.204 48.6061 17.204C51.1221 17.204 52.9581 15.538 52.9581 13.226C52.9581 10.897 51.1731 9.537 49.0311 9.537ZM48.5041 15.402C47.0931 15.402 46.3621 14.433 46.1071 12.886C46.4471 11.9 47.3481 11.271 48.4701 11.271C49.7451 11.271 50.7991 12.036 50.7991 13.311C50.7991 14.382 49.9321 15.402 48.5041 15.402ZM59.9037 17.204C62.5727 17.204 64.3917 15.64 64.3917 13.226C64.3917 10.88 62.6067 9.554 60.5327 9.554C59.5297 9.554 58.7647 9.86 58.1697 10.268L58.2717 7.259H63.7627V5.321H56.2827L56.1127 11.526L57.5577 12.138C58.2207 11.628 59.0197 11.322 59.9377 11.322C61.3317 11.322 62.2667 12.121 62.2667 13.311C62.2667 14.45 61.3657 15.368 59.9377 15.368C58.7647 15.368 57.6937 14.773 56.7927 13.889L55.5347 15.402C56.5717 16.49 57.9997 17.204 59.9037 17.204ZM69.3753 17H71.4833V5.321H69.7833L66.5023 7.548L67.3693 9.044L69.3753 7.769V17ZM79.0887 5.117C76.5727 5.117 74.7367 6.783 74.7367 9.095C74.7367 11.424 76.5217 12.784 78.6637 12.784C79.8537 12.784 80.9757 12.291 81.6897 11.458C81.5537 13.753 80.3807 15.334 78.7317 15.334C77.6947 15.334 76.9807 14.909 76.2667 14.28L75.2297 15.895C76.1647 16.694 77.2697 17.204 78.7147 17.204C81.7577 17.204 83.8827 14.569 83.8827 10.965C83.8827 7.599 82.4037 5.117 79.0887 5.117ZM79.2247 11.05C77.9497 11.05 76.8957 10.285 76.8957 9.01C76.8957 7.939 77.7627 6.919 79.1907 6.919C80.6017 6.919 81.3327 7.888 81.5877 9.435C81.2477 10.421 80.3467 11.05 79.2247 11.05Z" fill="#010101"/>
</svg>
